<svg width="38" height="26" viewBox="0 0 38 26" fill="none" xmlns="http://www.w3.org/2000/svg">
<path fill-rule="evenodd" clip-rule="evenodd" d="M21.7361 2.77377C22.1247 2.59122 22.5876 2.75821 22.7702 3.14674L29.1194 16.6605C29.302 17.0491 29.135 17.512 28.7465 17.6946C28.3579 17.8771 27.895 17.7101 27.7124 17.3216L21.3632 3.8078C21.1806 3.41927 21.3476 2.95631 21.7361 2.77377Z" fill="white"/>
<path d="M10.4927 14.1902L11.7622 14.6182C11.9966 14.6972 12.1901 14.8661 12.2999 15.0877L13.6227 17.7556C13.7325 17.9772 13.7499 18.2334 13.6709 18.4678L13.243 19.7373C12.9775 20.5248 11.8925 20.5982 11.5234 19.8537L9.35912 15.4884C8.99 14.7439 9.70529 13.9248 10.4927 14.1902Z" fill="white"/>
<path d="M13.0783 13.0117L21.7383 5.12697C22.1965 4.70978 22.9267 4.84715 23.2019 5.40235L27.9342 14.9472C28.2094 15.5024 27.8767 16.1667 27.2673 16.2788L15.7489 18.3983C15.3394 18.4737 14.9294 18.2684 14.7445 17.8953L12.8706 14.1157C12.6856 13.7426 12.7704 13.292 13.0783 13.0117Z" fill="white"/>
<path fill-rule="evenodd" clip-rule="evenodd"
      d="M18.6218 16.2822C19.4804 16.2822 20.1764 16.9782 20.1764 17.8367L20.1764 22.1894C20.1764 23.0479 19.4804 23.7439 18.6218 23.7439C17.7633 23.7439 17.0673 23.0479 17.0673 22.1894L17.0673 17.8367C17.0673 16.9782 17.7633 16.2822 18.6218 16.2822Z" fill="white"/>
</svg>
