<svg width="38" height="24" viewBox="0 0 38 24" fill="none" xmlns="http://www.w3.org/2000/svg">
<g clip-path="url(#clip0_12067_17141)">
<g clip-path="url(#clip1_12067_17141)">
<path d="M19.0045 24.0044C16.8171 24.0044 14.6296 24.0079 12.4429 24.0037C10.0656 23.9988 8.10933 22.6564 7.31804 20.4984C7.09036 19.8782 7.00166 19.2356 7.00166 18.5777C7.00166 14.1939 6.99677 9.80927 7.00376 5.42538C7.00795 2.76515 8.68133 0.676225 11.2543 0.116802C11.6251 0.0364857 12.0141 0.00785108 12.3947 0.00715267C16.7947 0.000168621 21.1954 -0.00402181 25.596 0.00575586C28.2499 0.0113431 30.341 1.70079 30.8878 4.27511C30.9702 4.66342 30.9926 5.07059 30.9933 5.46868C31.0003 9.82673 31.001 14.1848 30.9968 18.5428C30.9947 21.0522 29.5455 23.0741 27.2107 23.7662C26.6688 23.9268 26.0814 23.9883 25.5136 23.9946C23.3443 24.0197 21.1744 24.0044 19.0045 24.0044ZM29.3066 12.0302C29.3066 9.83441 29.3073 7.63863 29.3059 5.44214C29.3059 5.25078 29.3094 5.05732 29.285 4.86805C29.0266 2.90484 27.3483 1.67285 25.5862 1.68472C21.1954 1.71336 16.8045 1.6938 12.4136 1.6945C12.2397 1.6945 12.063 1.68682 11.8919 1.71056C9.99224 1.96897 8.6939 3.46007 8.6932 5.38906C8.69111 9.7981 8.6925 14.2078 8.6932 18.6169C8.6932 18.7824 8.68692 18.95 8.70857 19.1127C8.96558 21.0026 10.4546 22.3107 12.3605 22.3121C16.7863 22.3156 21.2121 22.3135 25.6379 22.3121C25.8202 22.3121 26.0039 22.3044 26.1841 22.2814C27.9852 22.0467 29.3464 20.4558 29.315 18.5659C29.2787 16.3875 29.3066 14.2085 29.3066 12.0302Z" fill="white"/>
<path d="M21.1834 8.04374C21.1667 8.10799 21.1457 8.21974 21.1101 8.3259C20.2329 10.9617 19.3557 13.5975 18.4743 16.2318C18.3081 16.7291 17.8688 16.9666 17.4141 16.8213C16.9322 16.6669 16.7108 16.2095 16.8812 15.692C17.2884 14.4558 17.7019 13.2217 18.1139 11.9869C18.5833 10.579 19.0519 9.17097 19.524 7.76438C19.6686 7.33416 20.0667 7.08134 20.4668 7.15118C20.8726 7.22102 21.1911 7.59676 21.1834 8.04374Z" fill="white"/>
<path d="M13.4965 12.0148C13.8269 12.3416 14.1482 12.6573 14.4673 12.9751C14.8312 13.3376 15.1972 13.6979 15.5547 14.0667C15.9026 14.4257 15.906 14.9558 15.5722 15.2812C15.2356 15.6095 14.7167 15.5983 14.3577 15.2414C13.4805 14.3698 12.6061 13.4961 11.7359 12.6182C11.3643 12.2439 11.3643 11.7627 11.7345 11.389C12.611 10.5048 13.491 9.62415 14.3758 8.74765C14.7209 8.40613 15.2419 8.40334 15.5708 8.72321C15.9053 9.04867 15.906 9.58085 15.5554 9.93774C14.945 10.5586 14.3263 11.1711 13.711 11.7871C13.6453 11.8549 13.5818 11.9247 13.4965 12.0148Z" fill="white"/>
<path d="M24.504 11.9927C23.8098 11.3012 23.1393 10.6294 22.4632 9.96379C22.1936 9.6977 22.1091 9.38621 22.2321 9.03491C22.4255 8.48177 23.1351 8.28552 23.5583 8.69479C24.497 9.60272 25.4161 10.5309 26.3296 11.4647C26.6257 11.7678 26.618 12.2504 26.3184 12.5556C25.4098 13.4817 24.4928 14.4001 23.566 15.3073C23.2461 15.6209 22.716 15.5825 22.4115 15.2654C22.1049 14.9462 22.091 14.4336 22.4074 14.1088C23.0331 13.4663 23.6722 12.837 24.3056 12.2015C24.365 12.1414 24.423 12.0779 24.504 11.9927Z" fill="white"/>
</g>
</g>
<defs>
<clipPath id="clip0_12067_17141">
<rect width="38" height="24.0091" fill="white"/>
</clipPath>
<clipPath id="clip1_12067_17141">
<rect width="24" height="24.0091" fill="white" transform="translate(7)"/>
</clipPath>
</defs>
</svg>
