<svg width="36" height="36" viewBox="0 0 36 36" fill="none" xmlns="http://www.w3.org/2000/svg">
    <path d="M0 18C0 8.05888 8.05888 0 18 0C27.9411 0 36 8.05888 36 18C36 27.9411 27.9411 36 18 36C8.05888 36 0 27.9411 0 18Z" fill="#161616" fill-opacity="0.8"/>
    <path d="M16.1768 7.62012C17.1975 5.71613 19.9275 5.71613 20.9482 7.62012L23.376 12.1484C23.4298 12.2485 23.5246 12.3201 23.6357 12.3438L28.5996 13.3965C30.6213 13.8254 31.4361 16.2702 30.0762 17.8262L26.5654 21.8418C26.4944 21.9233 26.4608 22.0312 26.4727 22.1387L27.0596 27.4756C27.2918 29.5883 25.1096 31.1326 23.1943 30.2109L18.7305 28.0625C18.6245 28.0115 18.5005 28.0115 18.3945 28.0625L13.9307 30.2109C12.0154 31.1326 9.8332 29.5883 10.0654 27.4756L10.6523 22.1387C10.6642 22.0312 10.6306 21.9233 10.5596 21.8418L7.04883 17.8262C5.68887 16.2702 6.50374 13.8254 8.52539 13.3965L13.4893 12.3438C13.6004 12.3201 13.6952 12.2485 13.749 12.1484L16.1768 7.62012Z"
          fill="#CCCCCC" stroke="#CCCCCC" stroke-width="2.32031"/>
</svg>
