<svg width="36" height="36" viewBox="0 0 36 36" fill="none" xmlns="http://www.w3.org/2000/svg">
<path d="M18.3948 28.0627L17.8917 27.0173L18.3948 28.0627C18.5008 28.0117 18.6242 28.0117 18.7302 28.0627L19.2333 27.0173L18.7302 28.0627L23.1945 30.211C25.1097 31.1327 27.2914 29.5887 27.0592 27.476L26.4725 22.1383C26.4606 22.0306 26.4945 21.923 26.5657 21.8415L30.076 17.8266C31.4364 16.2707 30.6216 13.8257 28.5998 13.3967L23.6361 12.3437C23.5247 12.32 23.4294 12.2485 23.3756 12.1481L22.3531 12.6962L23.3756 12.1481L20.9484 7.62017C19.9276 5.71607 17.1974 5.71606 16.1766 7.62017L13.7494 12.1481C13.6956 12.2485 13.6003 12.32 13.4889 12.3437L8.52517 13.3967C6.50336 13.8257 5.68863 16.2707 7.04903 17.8266L7.90551 17.0778L7.04903 17.8266L10.5593 21.8415C10.6305 21.923 10.6644 22.0306 10.6525 22.1383L10.0658 27.476C9.83361 29.5887 12.0153 31.1327 13.9305 30.211L18.3948 28.0627Z" fill="#E2E2E2" stroke="#E2E2E2" stroke-width="2.32031"/>
</svg>
