<svg width="28" height="27" viewBox="0 0 28 27" fill="none" xmlns="http://www.w3.org/2000/svg">
    <path fill-rule="evenodd" clip-rule="evenodd" d="M19.7653 20.1177C20.2923 19.4534 21.258 19.3421 21.9223 19.869L26.8165 23.7513C27.4808 24.2782 27.5921 25.2439 27.0652 25.9082C26.5382 26.5725 25.5725 26.6839 24.9082 26.1569L20.014 22.2747C19.3497 21.7477 19.2384 20.782 19.7653 20.1177Z" fill="white"/>
    <path fill-rule="evenodd" clip-rule="evenodd" d="M0 13.3084C0 5.94814 5.96687 0 13.3061 0C20.6448 0 26.6172 5.94769 26.6122 13.3091C26.6119 20.6691 20.6451 26.6169 13.3061 26.6169C5.96687 26.6169 0 20.6687 0 13.3084ZM13.3061 1.88638C6.97559 1.88638 1.86491 7.01132 1.86491 13.3084C1.86491 19.6056 6.97559 24.7305 13.3061 24.7305C19.6366 24.7305 24.7473 19.6056 24.7473 13.3084C24.7516 7.01242 19.6372 1.88638 13.3061 1.88638Z" fill="white"/>
    <path fill-rule="evenodd" clip-rule="evenodd" d="M11.4939 11.1402L10.626 13.9958C10.495 14.427 10.0974 14.7217 9.64673 14.7217H7.16649C6.71426 14.7217 6.34766 14.3551 6.34766 13.9029C6.34766 13.4507 6.71426 13.084 7.16649 13.084H9.19151L10.7783 7.86289C11.1006 6.80262 12.643 6.93914 12.774 8.03953L13.7329 16.0942L15.2905 12.0847C15.6203 11.2356 16.8116 11.208 17.1804 12.0408L18.0021 13.8961L18.7055 12.3712C18.895 11.9606 19.3814 11.7813 19.7921 11.9707C20.2027 12.1601 20.382 12.6466 20.1926 13.0572L18.9201 15.8157C18.5511 16.6155 17.4114 16.6068 17.0548 15.8015L16.2817 14.0558L14.3681 18.9816C13.9821 19.9753 12.5237 19.7905 12.3977 18.7319L11.4939 11.1402Z" fill="#B3E991"/>
</svg>
