<svg width="38" height="30" viewBox="0 0 38 30" fill="none" xmlns="http://www.w3.org/2000/svg">
<path fill-rule="evenodd" clip-rule="evenodd" d="M24.9138 21.8091C25.4407 21.1448 26.4064 21.0335 27.0707 21.5604L31.9649 25.4427C32.6292 25.9696 32.7406 26.9353 32.2136 27.5996C31.6867 28.264 30.721 28.3753 30.0566 27.8483L25.1625 23.9661C24.4981 23.4391 24.3868 22.4734 24.9138 21.8091Z" fill="black"/>
<path d="M9.75781 15C9.75781 19.8046 13.6522 23.7001 18.458 23.7001C23.2637 23.7001 27.1581 19.8046 27.1581 15C27.1614 10.1953 23.2637 6.2998 18.458 6.2998C13.6522 6.2998 9.75781 10.1953 9.75781 15Z" fill="white"/>
<path fill-rule="evenodd" clip-rule="evenodd" d="M5.14844 14.9998C5.14844 7.63955 11.1153 1.69141 18.4545 1.69141C25.7932 1.69141 31.7657 7.6391 31.7607 15.0005C31.7603 22.3605 25.7936 28.3083 18.4545 28.3083C11.1153 28.3083 5.14844 22.3601 5.14844 14.9998ZM18.4545 3.57779C12.124 3.57779 7.01334 8.70272 7.01334 14.9998C7.01334 21.297 12.124 26.4219 18.4545 26.4219C24.7851 26.4219 29.8957 21.297 29.8957 14.9998C29.9 8.70382 24.7857 3.57779 18.4545 3.57779Z" fill="black"/>
<path fill-rule="evenodd" clip-rule="evenodd" d="M16.6424 12.8316L15.7745 15.6872C15.6434 16.1184 15.2458 16.4131 14.7952 16.4131H12.3149C11.8627 16.4131 11.4961 16.0465 11.4961 15.5943C11.4961 15.1421 11.8627 14.7755 12.3149 14.7755H14.34L15.9268 9.55429C16.249 8.49403 17.7915 8.63054 17.9225 9.73093L18.8813 17.7856L20.4389 13.7761C20.7688 12.927 21.96 12.8994 22.3289 13.7323L23.1505 15.5875L23.854 14.0627C24.0434 13.652 24.5299 13.4727 24.9405 13.6621C25.3511 13.8516 25.5305 14.338 25.341 14.7487L24.0685 17.5071C23.6996 18.3069 22.5599 18.2982 22.2032 17.4929L21.4301 15.7472L19.5166 20.673C19.1306 21.6667 17.6722 21.4819 17.5461 20.4233L16.6424 12.8316Z" fill="#55942D"/>
</svg>
