<svg width="14" height="23" viewBox="0 0 14 23" fill="none" xmlns="http://www.w3.org/2000/svg">
<mask id="mask0_8165_28671" style="mask-type:luminance" maskUnits="userSpaceOnUse" x="0" y="0" width="14" height="23">
<path d="M0.546202 0.344727H13.9766V22.2271H0.546202V0.344727Z" fill="white"/>
</mask>
<g mask="url(#mask0_8165_28671)">
<path
        d="M2.21887 1.44541C1.6983 2.02179 1.6983 2.90664 2.21887 3.48341L10.2531 11.6354L2.21887 19.7874C1.91445 20.3725 2.02115 21.0906 2.4821 21.5583C2.94305 22.026 3.65075 22.1343 4.22742 21.8254L13.3863 12.7157C13.6617 12.4243 13.8198 12.039 13.8284 11.6354C13.8249 11.2366 13.666 10.8556 13.3863 10.5758L4.32785 1.44541C4.04893 1.16041 3.66918 1 3.27336 1C2.87753 1 2.49819 1.16041 2.21887 1.44541Z" fill="rgba(255,255,255,0.3)"/>
</g>
</svg>
