<svg width="38" height="26" viewBox="0 0 38 26" fill="none" xmlns="http://www.w3.org/2000/svg">
<g clip-path="url(#clip0_12067_17128)">
<path d="M27.4096 13.7352L18.8281 22.9604L10.5898 13.7283L10.8487 13.3061H16.2011C16.2011 11.5501 16.2379 9.97767 16.1888 8.40847C16.152 7.2305 16.5982 6.71544 17.8204 6.73626C22.5216 6.81632 21.7034 6.2196 21.7813 10.631C21.7957 11.4567 21.7835 12.2824 21.7835 13.2538H27.1678L27.4096 13.7352ZM18.9872 5.77552C18.5244 5.77659 18.0601 5.75097 17.5995 5.78193C16.6617 5.84598 16.2358 5.40191 16.2011 4.48974C16.1642 3.51726 16.6003 3.00754 17.5856 3.00327C18.557 2.999 19.5289 2.99847 20.5009 3.00434C21.428 3.01021 21.7989 3.48417 21.7963 4.40755C21.7936 5.31704 21.4883 5.82036 20.5137 5.77819C20.0056 5.75631 19.4959 5.77446 18.9872 5.77552Z" fill="black"/>
</g>
<defs>
<clipPath id="clip0_12067_17128">
<rect width="38" height="25.9604" fill="white"/>
</clipPath>
</defs>
</svg>
