<svg width="14" height="16" viewBox="0 0 14 16" fill="none" xmlns="http://www.w3.org/2000/svg">
<g id="Frame 3009">
<g id="Group">
<path id="Vector" d="M12.4693 2.70546L13.0495 2.10868C13.3531 1.79642 13.3531 1.28989 13.0495 0.97762C12.7459 0.66512 12.2535 0.66512 11.9497 0.97762L11.3695 1.5744C10.1719 0.588861 8.65276 8.84512e-06 6.99988 8.84512e-06C5.4114 -0.00255645 3.86985 0.552947 2.63031 1.5744V1.5751L2.05011 0.97832C1.74651 0.666053 1.25405 0.666053 0.950459 0.97832C0.646638 1.29082 0.646865 1.79735 0.950685 2.10962L1.53066 2.7057C0.572497 3.93751 0 5.5 0 7.2001V8H14V7.2001C14.0025 5.56624 13.4626 3.98065 12.4693 2.70546ZM4.66682 6.05784C3.99138 6.05784 3.44405 5.49464 3.44405 4.80014C3.44405 4.10542 3.99161 3.54245 4.66682 3.54245C5.34225 3.54245 5.88958 4.10565 5.88958 4.80014C5.88958 5.49464 5.34202 6.05784 4.66682 6.05784ZM10.007 5.2001C9.86804 5.44777 9.61138 5.60028 9.3334 5.60005C8.90375 5.60005 8.55571 5.24184 8.55571 4.80014C8.55571 4.35821 8.90375 4.00024 9.3334 4.00024C9.61138 4.00024 9.86804 4.15276 10.007 4.40019C10.146 4.64739 10.146 4.95266 10.007 5.2001Z" fill="white"/>
<path id="Vector_2" d="M0 15.2001C0 15.6421 0.34826 16 0.777689 16H13.2221C13.6517 16 13.9998 15.6418 13.9998 15.2001V9.6001H0V15.2001Z" fill="white"/>
</g>
</g>
</svg>
