<svg width="15" height="17" viewBox="0 0 15 17" fill="none" xmlns="http://www.w3.org/2000/svg">
<path id="Vector" d="M9.94219 2.76009C10.5146 2.04356 10.9485 1.03216 10.7923 0C9.85465 0.0631714 8.76082 0.643518 8.12334 1.39873C7.54076 2.08356 7.06214 3.10108 7.24823 4.08953C8.27343 4.12122 9.32855 3.52754 9.94219 2.76009ZM14.9998 12.473C14.5898 13.3556 14.3936 13.7515 13.8661 14.5336C13.1285 15.6265 12.0911 16.9863 10.8049 16.9962C9.66249 17.0082 9.36726 16.2724 7.81731 16.2809C6.26736 16.2895 5.9422 17.0108 4.79842 16.9999C3.51219 16.9879 2.52975 15.7614 1.79348 14.6684C-0.265471 11.6157 -0.481717 8.03238 0.78718 6.12588C1.69087 4.77326 3.1148 3.98264 4.45346 3.98264C5.81597 3.98264 6.67217 4.70987 7.80111 4.70987C8.89494 4.70987 9.561 3.98133 11.1362 3.98133C12.3288 3.98133 13.5925 4.61282 14.4924 5.70553C11.5437 7.27804 12.0212 11.3761 15 12.4738V12.473H14.9998Z" fill="white"/>
</svg>
