<svg width="38" height="26" viewBox="0 0 38 26" fill="none" xmlns="http://www.w3.org/2000/svg">
<path d="M29.0912 10.3429C28.6501 10.4566 28.1968 10.213 28.043 9.7828C26.3594 5.13136 21.3934 2.45658 16.5327 3.727C11.6719 4.99742 8.64055 9.76656 9.43786 14.6494C9.51071 15.0999 9.23955 15.5342 8.79435 15.6519C8.29654 15.7818 7.79063 15.4611 7.7016 14.9538C6.95286 10.6067 8.76602 6.17448 12.4207 3.61741C16.3384 0.877689 21.5391 0.87363 25.4609 3.60523C27.4359 4.98524 28.9172 6.94566 29.7064 9.20644C29.8764 9.68944 29.585 10.213 29.0912 10.3429ZM11.1863 18.7691C13.4972 21.9269 17.5202 23.4083 21.3772 22.4139C25.04 21.4682 27.7556 18.489 28.4477 14.8685L30.3823 13.0989C30.358 15.0958 29.8116 17.0481 28.7998 18.7691C26.7357 22.3043 22.9475 24.4677 18.8639 24.4393C14.7802 24.4109 11.0244 22.1947 9.0129 18.627L11.1863 18.7691Z" fill="white"/>
<path d="M26.8031 13.5314C26.8031 17.8393 23.3109 21.3314 19.0031 21.3314C14.6953 21.3314 11.2031 17.8393 11.2031 13.5314C11.2031 9.22362 14.6953 5.73145 19.0031 5.73145C23.3109 5.73145 26.8031 9.22362 26.8031 13.5314Z" fill="#B3E991"/>
<path d="M33.891 8.97519C33.0573 7.12841 30.6087 6.45058 26.6303 6.63729C27.2576 7.07159 27.0431 7.60735 27.549 8.13501C28.3544 8.14718 29.0708 8.20401 29.686 8.29736C31.1065 8.51248 31.9969 8.92242 32.2276 9.42978C32.5676 10.1807 31.5963 11.4227 29.6941 12.6728C27.4681 14.138 24.2222 15.4937 20.5554 16.5003C16.8886 17.5028 13.2663 18.0264 10.3564 17.9696C7.86731 17.9209 6.11081 17.4257 5.77489 16.6748C5.44302 15.9361 6.36579 14.69 8.43797 13.3466C8.41774 12.8636 8.43797 12.3724 8.51487 11.8773C8.53915 11.7108 8.57153 11.5485 8.60796 11.3861C5.31351 13.1883 3.26965 15.2705 4.11148 17.1294C4.60524 18.2253 5.96511 18.9518 8.08182 19.2765C8.77794 19.3821 9.55906 19.443 10.4171 19.4592C13.5253 19.5201 17.354 18.9721 21.1989 17.9209C25.0438 16.8696 28.4718 15.4288 30.8475 13.8661C33.4944 12.1249 34.5467 10.4323 33.891 8.97519Z" fill="white"/>
<path d="M11.1864 18.7695C9.94388 18.7938 14.3149 24.7075 21.778 23.1936C29.2411 21.6796 29.1278 14.252 29.1278 14.252C29.1278 14.252 20.2481 18.599 11.1864 18.7695Z" fill="white"/>
<ellipse cx="23.6855" cy="8.86038" rx="2.08" ry="2.08597" fill="#55942D"/>
</svg>
