<svg width="38" height="26" viewBox="0 0 38 26" fill="none" xmlns="http://www.w3.org/2000/svg">
<path d="M14.2759 25.2289C12.6107 21.8385 13.4975 19.8918 14.7733 18.0606C16.1683 16.061 16.5359 14.0728 16.5359 14.0728C16.5359 14.0728 17.6302 15.4761 17.1977 17.6683C19.1323 15.5412 19.5011 12.1711 19.2102 10.8708C23.5983 13.8811 25.4705 20.3994 22.9377 25.2289C36.3796 17.765 26.2816 6.59757 24.5273 5.33398C25.1102 6.59757 25.2183 8.72763 24.0406 9.75772C22.0402 2.30341 17.0875 0.770508 17.0875 0.770508C17.6692 4.61859 14.9571 8.81959 12.3499 11.9675C12.2526 10.4379 12.1551 9.37375 11.3335 7.90654C11.1507 10.6917 8.97599 12.9695 8.39334 15.7538C7.60348 19.5404 8.98771 22.3052 14.2759 25.2289Z" fill="white"/>
</svg>
