<svg width="18" height="22" viewBox="0 0 18 22" fill="none" xmlns="http://www.w3.org/2000/svg">
<path d="M15.3728 16C13.3893 21 11.9017 22 8.43064 22C4.87047 22 1.98438 19.0899 1.98438 15.5C1.98438 11.9101 5.36633 8 8.92651 8C12.4867 8 15.3728 12.4101 15.3728 16Z" fill="#FCD23C"/>
<path d="M5.02528 21C3.6508 18.089 4.38276 16.4176 5.43584 14.8453C6.58725 13.1285 6.8906 11.4214 6.8906 11.4214C6.8906 11.4214 7.79384 12.6263 7.43689 14.5084C9.03364 12.6821 9.33804 9.7886 9.09797 8.67215C12.7198 11.2568 14.4871 16.8534 12.3967 21C23.4913 14.5915 14.9345 5.00313 13.4866 3.91821C13.9677 5.00313 14.0569 6.832 13.0849 7.71644C11.4337 1.31615 7.34588 0 7.34588 0C7.82601 3.30397 5.58752 6.91096 3.43558 9.61376C3.3553 8.30043 3.27476 7.38676 2.59667 6.12701C2.44578 8.51834 0.650802 10.4741 0.169893 12.8647C-0.482042 16.1158 0.660478 18.4897 5.02528 21Z" fill="#FA4040"/>
</svg>
