<svg width="26" height="22" viewBox="0 0 26 22" fill="none" xmlns="http://www.w3.org/2000/svg">
<rect width="23.9995" height="19.1304" transform="translate(1 1)" fill=""/>
<rect x="4" y="5" width="18" height="13" fill="#69AE00"/>
<path d="M12.9723 15.0724H7.24988C7.04082 15.0724 6.7031 15.0048 6.62537 14.8906C6.54764 14.7764 6.67629 14.5061 6.78083 14.3476C7.48307 13.42 8.21211 12.4923 8.91436 11.5647C9.14754 11.2711 9.38341 11.2477 9.74793 11.3829C10.9434 11.8817 12.1683 12.3781 13.3905 12.8769C13.7282 13.0121 14.1436 12.9212 14.3527 12.6508C15.004 11.7675 15.6795 10.9098 16.3817 10.0498C16.513 9.89127 16.7462 9.64189 16.9285 9.64189C17.1376 9.64189 17.293 9.93556 17.3707 10.1174C18.0221 11.5204 18.6466 12.9445 19.2711 14.3476C19.5311 14.9349 19.4265 15.0724 18.6466 15.0724H12.9723ZM10.8656 8.12693C10.8656 8.80516 10.1902 9.34822 9.40753 9.32491C8.62756 9.3016 8.02985 8.78186 8.02985 8.12693C8.02985 7.44869 8.68117 6.90564 9.48794 6.92895C10.2143 6.94992 10.8656 7.49298 10.8656 8.12693Z" fill="white"/>
<path d="M1 4.47803H22V20.9998" stroke="#69AE00" stroke-width="2" stroke-linecap="round"/>
<path d="M25 18.3911L4 18.3911L4 1.86937" stroke="#69AE00" stroke-width="2" stroke-linecap="round"/>
</svg>
