<svg width="20" height="20" viewBox="0 0 20 20" fill="none" xmlns="http://www.w3.org/2000/svg">
<g id="Group">
<path id="Vector" d="M10.5965 7.3544C10.0628 7.89134 10.0628 8.75834 10.5965 9.29551C11.377 10.0798 11.377 11.3473 10.5965 12.1315L6.54898 16.2195C6.0562 16.7882 5.28729 17.0344 4.55603 16.8573C3.82477 16.6802 3.25367 16.1093 3.07608 15.378C2.8985 14.6468 3.14419 13.8776 3.71297 13.3848L4.62228 12.4065C5.15805 11.8665 5.15457 10.9947 4.61461 10.4589C4.07465 9.9231 3.20276 9.92659 2.66699 10.4665L1.75884 11.4842C0.00461182 13.36 0.0534243 16.2887 1.86925 18.105C3.68508 19.9211 6.61383 19.9706 8.49009 18.2166L12.5508 14.1547C14.408 12.2952 14.408 9.28296 12.5508 7.42344C12.3019 7.15357 11.9553 6.99435 11.5883 6.98133C11.221 6.96832 10.864 7.10267 10.5965 7.3544Z" fill="#69AE00"/>
<path id="Vector_2" d="M18.1389 1.84879C16.2554 0.0504017 13.2911 0.0504017 11.4077 1.84879L7.37319 5.85468C5.51623 7.7142 5.51623 10.7264 7.37319 12.5859C7.72 12.9353 8.22672 13.0729 8.70252 12.9474C9.17833 12.8216 9.55116 12.4518 9.68017 11.9769C9.80917 11.5021 9.67529 10.9942 9.32848 10.645C8.54795 9.86079 8.54795 8.59329 9.32848 7.80904L13.3904 3.74853C14.1835 2.99078 15.4321 2.99078 16.2252 3.74853C17.0058 4.53279 17.0058 5.80028 16.2252 6.58454L15.2492 7.56033C14.8999 7.90689 14.762 8.41338 14.8875 8.88919C15.0131 9.365 15.3829 9.7376 15.8575 9.86683C16.3322 9.99607 16.8398 9.86219 17.1892 9.51562L18.1663 8.53983C19.9889 6.67728 19.9768 3.696 18.1389 1.84879Z" fill="#69AE00"/>
</g>
</svg>
