<svg width="157" height="44" viewBox="0 0 157 44" fill="none" xmlns="http://www.w3.org/2000/svg">
<g id="logo">
<g id="Group">
<g id="Group_2">
<path id="Vector" d="M63.5292 7.35889C63.5292 8.70138 63.5292 10.1486 63.5292 11.3039C62.5342 11.507 61.9534 11.9656 61.3504 12.4861C60.5411 13.1859 60.4141 14.2491 60.4062 15.2441C60.3713 19.7143 60.3316 24.1861 60.4189 28.6547C60.457 30.5685 60.8045 31.7396 63.5292 32.6664C63.5292 33.2852 63.5292 33.939 63.5292 34.5928C63.5292 35.2244 63.5292 35.921 63.5292 36.651C62.2026 36.6764 61.0029 36.2876 59.8905 35.7021C56.8103 34.0819 55.2377 31.4953 55.2028 28.0327C55.1631 23.9338 55.1901 19.8333 55.1901 15.7328C55.1917 11.5181 58.4051 7.89842 62.5913 7.40173C62.8722 7.36682 63.2023 7.35889 63.5292 7.35889Z" fill="black"/>
<path id="Vector_2" d="M63.8496 36.6526C63.8496 35.299 63.8178 33.847 63.8496 32.6632C63.9638 32.6363 64.0495 32.6061 64.2241 32.5395C66.525 31.7333 66.9583 30.5955 66.9646 28.5453C66.9773 24.1782 66.9741 19.8127 66.9662 15.4456C66.9614 13.1018 65.8046 11.4864 63.8496 11.3007C63.8496 10.6739 63.8496 10.0201 63.8496 9.36475C63.8496 8.73476 63.8496 8.0524 63.8496 7.36052C64.7398 7.2669 67.4724 7.83658 68.7562 8.99818C71.0159 10.6882 72.1521 12.9828 72.1585 15.8075C72.168 19.8572 72.1617 23.9053 72.1617 27.955C72.1617 32.011 69.8274 35.1451 65.9157 36.294C65.292 36.4749 64.5129 36.6114 63.8496 36.6526Z" fill="black"/>
</g>
<g id="Group_3">
<path id="Vector_3" d="M83.1066 7.97461H77.8096V36.0242H83.1066V7.97461Z" fill="black"/>
<path id="Vector_4" d="M83.6079 11.4229V7.97461C83.6079 7.97461 86.4595 7.97461 88.2146 7.97461C89.9697 7.97461 93.1102 10.3565 93.2038 12.9891C93.2895 15.379 93.2133 28.431 93.2006 30.851C93.199 31.1684 93.1562 31.4762 93.0642 31.7793C92.339 34.1438 90.1951 35.7878 87.7243 35.8766L83.6079 36.0242V32.3569C83.6079 32.3569 85.582 32.4347 86.1929 32.2633C86.8039 32.0903 88.0464 30.8653 88.0417 29.9433C88.0369 28.9245 88.0417 13.9984 88.0417 13.9984C88.0417 13.9984 88.0798 12.9749 87.0784 12.1544C86.5643 11.7339 85.9073 11.5292 85.244 11.4975L83.6079 11.4229Z" fill="black"/>
</g>
<g id="Group_4">
<path id="Vector_5" d="M102.805 7.97461L96.3335 36.0258H101.599L102.914 29.3974L106.77 29.4434L106.378 26.2935H103.479L104.968 19.0066L102.805 7.97461Z" fill="black"/>
<path id="Vector_6" d="M103.338 7.97461H107.741L113.884 36.0258H108.543L103.338 7.97461Z" fill="black"/>
</g>
<path id="Vector_7" d="M123.424 7.97461H118.146V36.0242H123.424V7.97461Z" fill="black"/>
<g id="Group_5">
<path id="Vector_8" d="M134.335 7.97461H129.057V36.0242H134.335V7.97461Z" fill="black"/>
<path id="Vector_9" d="M140.979 32.5078H134.719V36.0259H140.979V32.5078Z" fill="black"/>
</g>
<g id="Group_6">
<path id="Vector_10" d="M141.213 7.97461H145.758L151.838 29.7576V36.0258H146.526V27.5011L141.213 7.97461Z" fill="black"/>
<path id="Vector_11" d="M151.618 27.8137L156.999 7.97461H152.183L149.33 19.508L151.618 27.8137Z" fill="black"/>
</g>
</g>
<g id="Group 12">
<path id="Vector_12" d="M23.2415 0.616302C24.5761 0.803553 25.9075 1.05428 27.2024 1.41133C36.8348 4.05823 43.314 12.9082 42.9601 22.8802C42.5999 33.06 34.9257 41.6529 24.8014 43.2033C23.9969 43.327 23.1828 43.3969 22.3084 43.5V33.3472C23.0939 33.1996 23.8826 33.1012 24.6443 32.8997C30.3396 31.3969 34.0323 25.7889 33.0627 20.1412C32.0424 14.1968 26.9025 10.0963 20.9564 10.4819C15.2071 10.8564 10.4909 15.5662 10.3512 21.3123C10.2084 27.2615 10.2656 33.2155 10.237 39.1678C10.2354 39.482 10.237 39.7946 10.237 40.2755C9.90057 40.0755 9.68158 39.9565 9.47529 39.82C2.18831 34.9848 -1.37424 26.1047 0.488758 17.4197C2.29781 8.98389 9.37531 2.29204 17.9445 0.917808C18.2793 0.863855 18.6126 0.808314 18.9458 0.751186C19.5536 0.64804 20.1661 0.565522 20.7818 0.527437C21.607 0.476657 22.3529 0.490939 23.2415 0.616302Z" fill="black"/>
<path id="Vector_13" d="M21.2817 11.3623C21.2817 22.0103 21.2817 32.636 21.2817 43.4712C19.56 43.4712 18.2048 43.1855 16.7718 42.7983C15.0453 42.3318 13.3902 41.6843 11.7049 40.9766C11.3954 40.8163 11.1939 40.6973 11.1526 40.6243C11.1415 40.4799 11.1273 40.272 11.1288 40.0832C11.1463 34.1292 11.0987 28.1737 11.1526 22.2197C11.2034 16.6593 15.3595 12.0669 20.858 11.3639C20.9818 11.3481 21.1103 11.3623 21.2817 11.3623Z" fill="black"/>
</g>
</g>
</svg>
