<svg xmlns="http://www.w3.org/2000/svg" width="118" height="32" viewBox="0 0 118 32" fill="none">
    <path d="M47.7509 5.10352C47.7509 6.10258 47.7509 7.17959 47.7509 8.03931C47.0031 8.19047 46.5665 8.53176 46.1133 8.9191C45.505 9.43989 45.4096 10.2311 45.4037 10.9716C45.3774 14.2982 45.3476 17.6261 45.4132 20.9516C45.4418 22.3758 45.703 23.2473 47.7509 23.937C47.7509 24.3976 47.7509 24.8841 47.7509 25.3706C47.7509 25.8406 47.7509 26.3591 47.7509 26.9023C46.7538 26.9212 45.8521 26.6319 45.016 26.1961C42.701 24.9904 41.5191 23.0655 41.4928 20.4887C41.463 17.4383 41.4833 14.3868 41.4833 11.3353C41.4845 8.19873 43.8997 5.50503 47.046 5.1354C47.2571 5.10942 47.5052 5.10352 47.7509 5.10352Z"
          fill="white" fill-opacity="0.9"/>
    <path d="M47.993 26.9038C47.993 25.8965 47.9692 24.816 47.993 23.935C48.0789 23.9149 48.1433 23.8925 48.2745 23.8429C50.0039 23.243 50.3295 22.3962 50.3343 20.8705C50.3438 17.6205 50.3414 14.3718 50.3355 11.1219C50.3319 9.37766 49.4624 8.17547 47.993 8.0373C47.993 7.57083 47.993 7.08429 47.993 6.59657C47.993 6.12774 47.993 5.61994 47.993 5.10505C48.6621 5.03538 50.7159 5.45933 51.6808 6.32377C53.3792 7.58146 54.2332 9.28909 54.238 11.3911C54.2451 14.4049 54.2403 17.4174 54.2403 20.4312C54.2403 23.4496 52.4859 25.782 49.5459 26.6369C49.0772 26.7716 48.4916 26.8731 47.993 26.9038Z"
          fill="white" fill-opacity="0.9"/>
    <path d="M62.4656 5.5625H58.4844V26.4366H62.4656V5.5625Z" fill="white" fill-opacity="0.9"/>
    <path d="M62.8398 8.12866V5.5625C62.8398 5.5625 64.9831 5.5625 66.3022 5.5625C67.6213 5.5625 69.9817 7.33508 70.052 9.29424C70.1165 11.0727 70.0592 20.7859 70.0497 22.5868C70.0485 22.823 70.0163 23.0521 69.9471 23.2776C69.402 25.0372 67.7907 26.2607 65.9337 26.3268L62.8398 26.4366V23.7075C62.8398 23.7075 64.3235 23.7654 64.7827 23.6378C65.2419 23.5091 66.1758 22.5974 66.1722 21.9113C66.1686 21.1531 66.1722 10.0453 66.1722 10.0453C66.1722 10.0453 66.2008 9.28361 65.4483 8.67307C65.0618 8.36012 64.5681 8.20778 64.0695 8.18417L62.8398 8.12866Z"
          fill="white" fill-opacity="0.9"/>
    <path d="M77.2661 5.5625L72.4023 26.4378H76.3597L77.3484 21.5051L80.2467 21.5393L79.9521 19.1952H77.773L78.8918 13.7723L77.2661 5.5625Z" fill="white" fill-opacity="0.9"/>
    <path d="M77.668 5.5625H80.9777L85.5946 26.4378H81.58L77.668 5.5625Z" fill="white" fill-opacity="0.9"/>
    <path d="M92.7657 5.5625H88.7988V26.4366H92.7657V5.5625Z" fill="white" fill-opacity="0.9"/>
    <path d="M100.967 5.5625H97V26.4366H100.967V5.5625Z" fill="white" fill-opacity="0.9"/>
    <path d="M105.959 23.8193H101.254V26.4375H105.959V23.8193Z" fill="white" fill-opacity="0.9"/>
    <path d="M106.137 5.5625H109.553L114.122 21.7731V26.4378H110.13V20.0938L106.137 5.5625Z" fill="white" fill-opacity="0.9"/>
    <path d="M113.958 20.3265L118.003 5.5625H114.383L112.238 14.1455L113.958 20.3265Z" fill="white" fill-opacity="0.9"/>
    <path d="M17.4681 0.0865504C18.4712 0.2259 19.4719 0.412487 20.4451 0.678196C27.6847 2.64799 32.5545 9.23403 32.2885 16.655C32.0178 24.2307 26.2499 30.6254 18.6406 31.7792C18.0359 31.8713 17.424 31.9232 16.7668 32V24.4444C17.3572 24.3346 17.95 24.2614 18.5225 24.1114C22.803 22.993 25.5784 18.8196 24.8497 14.6167C24.0828 10.1929 20.2197 7.14143 15.7507 7.42839C11.4295 7.70709 7.88487 11.2121 7.77992 15.4882C7.67257 19.9155 7.71551 24.3464 7.69404 28.7761C7.69285 29.0099 7.69404 29.2425 7.69404 29.6003C7.44119 29.4516 7.2766 29.363 7.12155 29.2614C1.64472 25.6631 -1.03287 19.0546 0.367347 12.5914C1.72701 6.31359 7.04641 1.33361 13.4869 0.310927C13.7386 0.270775 13.9891 0.229443 14.2395 0.186929C14.6963 0.110169 15.1567 0.0487607 15.6195 0.0204183C16.2397 -0.0173714 16.8002 -0.00674304 17.4681 0.0865504Z"
          fill="white" fill-opacity="0.9"/>
    <path d="M15.9943 8.08349C15.9943 16.0075 15.9943 23.915 15.9943 31.9784C14.7002 31.9784 13.6817 31.7659 12.6047 31.4777C11.307 31.1305 10.0631 30.6487 8.79643 30.122C8.56385 30.0027 8.41238 29.9142 8.38137 29.8598C8.37302 29.7524 8.36229 29.5977 8.36348 29.4571C8.3766 25.0263 8.34082 20.5943 8.38137 16.1634C8.41954 12.0254 11.5432 8.60783 15.6759 8.08467C15.7689 8.07287 15.8655 8.08349 15.9943 8.08349Z"
          fill="white" fill-opacity="0.9"/>
</svg>
