<svg width="22" height="22" viewBox="0 0 22 22" fill="none" xmlns="http://www.w3.org/2000/svg">
<g id="Frame 3146">
<circle id="Ellipse 17" cx="10.0531" cy="9.84612" r="7.30769" transform="rotate(180 10.0531 9.84612)" fill=""/>
<path id="Vector" d="M16.0913 14.7153C16.1331 14.7446 16.1744 14.7773 16.2113 14.8159L20.9656 19.5687C21.2853 19.8884 21.2905 20.4249 20.9632 20.7522C20.8068 20.9103 20.5938 20.9995 20.3717 21C20.1494 21.0005 19.936 20.9127 19.7788 20.7554L15.0245 16.0018C14.9878 15.9649 14.9546 15.9248 14.9254 15.8818C13.4258 17.1154 11.5432 17.7883 9.60098 17.7851C4.96516 17.7854 1.20703 14.0279 1.20703 9.39257C1.20703 4.75751 4.96516 1 9.60098 1C14.237 1 17.9952 4.75751 17.9952 9.39257C17.9952 11.4127 17.2815 13.2666 16.0913 14.7153ZM9.60098 16.1068C13.3097 16.1068 16.3163 13.1009 16.3163 9.39257C16.3163 5.68448 13.3099 2.67837 9.60098 2.67837C5.89228 2.67837 2.88567 5.68448 2.88567 9.39257C2.88592 13.1007 5.89228 16.1068 9.60098 16.1068Z" fill="#232323" stroke="#232323" stroke-width="0.461538"/>
</g>
</svg>
