<svg xmlns="http://www.w3.org/2000/svg" width="15" height="15" viewBox="0 0 15 15" fill="none">
    <path d="M11.1632 10.2865C11.1945 10.3085 11.2255 10.333 11.2532 10.3619L14.8189 13.9266C15.0587 14.1663 15.0626 14.5687 14.8171 14.8141C14.6998 14.9327 14.5401 14.9996 14.3735 15C14.2068 15.0004 14.0467 14.9345 13.9288 14.8165L10.3631 11.2513C10.3356 11.2237 10.3107 11.1936 10.2888 11.1613C9.16405 12.0865 7.75216 12.5913 6.29546 12.5889C2.8186 12.589 0 9.7709 0 6.29443C0 2.81814 2.8186 0 6.29546 0C9.77251 0 12.5911 2.81814 12.5911 6.29443C12.5911 7.80953 12.0559 9.19997 11.1632 10.2865ZM6.29546 11.3301C9.07699 11.3301 11.3319 9.07568 11.3319 6.29443C11.3319 3.51336 9.07717 1.25877 6.29546 1.25877C3.51393 1.25877 1.25898 3.51336 1.25898 6.29443C1.25917 9.0755 3.51393 11.3301 6.29546 11.3301Z"
          fill="white" fill-opacity="0.9"/>
</svg>
