<svg width="38" height="22" viewBox="0 0 38 22" fill="none" xmlns="http://www.w3.org/2000/svg">
<path d="M19.0024 22C18.5144 22 18.024 21.9587 17.5431 21.8786C16.7841 21.7597 16.1594 21.2087 15.926 20.4561C15.5582 19.223 14.4479 18.3831 13.1938 18.3952C12.984 18.3952 12.7765 18.4195 12.5714 18.4632C12.4347 18.4923 12.2933 18.5093 12.1518 18.5093C11.546 18.5069 10.9731 18.2205 10.596 17.7325C9.99718 16.9363 9.50685 16.0625 9.13674 15.1327C8.85857 14.3948 9.0118 13.5597 9.53278 12.9772C10.5205 11.8435 10.5205 10.1273 9.53278 8.99371C9.01415 8.41112 8.86092 7.57608 9.13674 6.83813C9.49977 5.90356 9.99011 5.02725 10.596 4.23833C10.9849 3.74556 11.5696 3.45912 12.1872 3.46155C12.3286 3.46155 12.4701 3.47611 12.6092 3.50767C12.8119 3.55379 13.0217 3.57806 13.2291 3.57806C14.4786 3.57564 15.5842 2.74302 15.9637 1.51473C16.1947 0.76222 16.8218 0.211188 17.5809 0.0922432C18.0594 0.0315569 18.5427 0 19.0236 0C19.5163 0 20.009 0.0315569 20.4969 0.0922432C21.256 0.211188 21.8831 0.76222 22.1141 1.51473C22.3239 2.22112 22.7907 2.81827 23.4154 3.17996C23.8515 3.43727 24.3465 3.57564 24.8487 3.57564C25.0561 3.57564 25.2635 3.55136 25.4686 3.50524C25.6077 3.47611 25.7492 3.45912 25.8906 3.45912C26.4988 3.45184 27.074 3.73828 27.4418 4.2359C28.0052 5.06124 28.4814 5.94726 28.8633 6.87697C29.1414 7.61492 28.9882 8.44996 28.4672 9.03255C27.4795 10.1662 27.4795 11.8824 28.4672 13.016C28.9858 13.5986 29.1391 14.4336 28.8633 15.1716C28.5026 16.1061 28.0099 16.9825 27.404 17.7714C27.0222 18.2617 26.4446 18.5457 25.834 18.5482C25.6973 18.5482 25.5629 18.5336 25.4309 18.502C25.2282 18.4559 25.0207 18.4316 24.8109 18.4316C23.5615 18.4341 22.4559 19.2691 22.0764 20.495C21.8454 21.2475 21.2183 21.7985 20.4592 21.9175C19.9854 21.9612 19.4785 22 19.0024 22ZM18.8161 7.13671C16.5837 7.13671 14.7756 9.00099 14.7756 11.2974C14.7756 13.5937 16.586 15.458 18.8161 15.458C21.0462 15.458 22.8567 13.5937 22.8567 11.2974C22.8543 9.00099 21.0462 7.13914 18.8161 7.13671ZM18.8161 13.6763C17.5408 13.6763 16.5059 12.6106 16.5059 11.2974C16.5059 9.98411 17.5408 8.91846 18.8161 8.91846C20.0915 8.91846 21.1264 9.98411 21.1264 11.2974C21.124 12.6106 20.0891 13.6738 18.8161 13.6763Z" fill="black"/>
</svg>
