<svg width="36" height="36" viewBox="0 0 36 36" fill="none" xmlns="http://www.w3.org/2000/svg">
<circle cx="18" cy="18" r="18" fill="#FAFAFA"/>
<path d="M25.6765 10.3555L9.71875 19.221L23.7581 25.7028" stroke="#69AE00" stroke-width="2.41715" stroke-linecap="square"/>
<path d="M28.9433 10.9949C28.9433 12.7996 27.4803 14.2626 25.6755 14.2626C23.8708 14.2626 22.4078 12.7996 22.4078 10.9949C22.4078 9.19015 23.8708 7.72713 25.6755 7.72713C27.4803 7.72713 28.9433 9.19015 28.9433 10.9949Z" fill="#69AE00" stroke="#69AE00" stroke-width="2.41715"/>
<path d="M12.3167 19.1918C12.3167 20.6434 11.14 21.8201 9.6884 21.8201C8.23685 21.8201 7.06014 20.6434 7.06014 19.1918C7.06014 17.7403 8.23685 16.5636 9.6884 16.5636C11.14 16.5636 12.3167 17.7403 12.3167 19.1918Z" fill="#69AE00" stroke="#69AE00" stroke-width="2.41715"/>
<path d="M26.3854 26.2843C26.3854 27.3827 25.495 28.2731 24.3966 28.2731C23.2982 28.2731 22.4078 27.3827 22.4078 26.2843C22.4078 25.1859 23.2982 24.2955 24.3966 24.2955C25.495 24.2955 26.3854 25.1859 26.3854 26.2843Z" fill="#69AE00" stroke="#69AE00" stroke-width="2.41715"/>
</svg>
