<svg width="40" height="40" viewBox="0 0 40 40" fill="none" xmlns="http://www.w3.org/2000/svg">
<circle cx="20" cy="20" r="19" fill="#484848" stroke="#484848" stroke-width="2"/>
<path d="M20.6011 17.3381C20.0642 17.8783 20.0642 18.7506 20.6011 19.291C21.3864 20.08 21.3864 21.3552 20.6011 22.1442L16.5291 26.2568C16.0334 26.8291 15.2598 27.0767 14.5241 26.8985C13.7884 26.7203 13.2139 26.146 13.0352 25.4103C12.8565 24.6746 13.1037 23.9008 13.6759 23.4051L14.5908 22.4208C15.1298 21.8776 15.1263 21.0004 14.583 20.4614C14.0398 19.9224 13.1626 19.9259 12.6236 20.4691L11.71 21.4929C9.94513 23.38 9.99423 26.3265 11.8211 28.1538C13.6479 29.9809 16.5944 30.0307 18.482 28.2661L22.5673 24.1796C24.4358 22.3088 24.4358 19.2783 22.5673 17.4076C22.3169 17.1361 21.9682 16.9759 21.599 16.9628C21.2295 16.9497 20.8703 17.0849 20.6011 17.3381Z" fill="#69AE00"/>
<path d="M28.1891 11.7993C26.2942 9.99006 23.312 9.99006 21.4171 11.7993L17.3582 15.8295C15.49 17.7003 15.49 20.7307 17.3582 22.6015C17.7071 22.953 18.2169 23.0914 18.6956 22.9651C19.1743 22.8386 19.5493 22.4666 19.6791 21.9888C19.8089 21.5111 19.6742 21.0001 19.3253 20.6489C18.5401 19.8599 18.5401 18.5847 19.3253 17.7957L23.4118 13.7106C24.2097 12.9482 25.4659 12.9482 26.2638 13.7106C27.0491 14.4996 27.0491 15.7748 26.2638 16.5638L25.2819 17.5455C24.9304 17.8941 24.7918 18.4037 24.918 18.8824C25.0443 19.3611 25.4164 19.7359 25.8939 19.8659C26.3714 19.996 26.8821 19.8613 27.2336 19.5126L28.2167 18.5309C30.0503 16.6571 30.0381 13.6577 28.1891 11.7993Z" fill="#69AE00"/>
</svg>
