<svg width="30" height="30" viewBox="0 0 30 30" fill="none" xmlns="http://www.w3.org/2000/svg">
    <circle cx="15" cy="15" r="15" fill="#F2F2F2"/>
    <g clip-path="url(#clip0_12074_23211)">
        <path d="M15.5085 12.6312C15.0603 13.0845 15.0603 13.8166 15.5085 14.2702C16.1641 14.9324 16.1641 16.0026 15.5085 16.6649L12.1093 20.1166C11.6954 20.5969 11.0497 20.8047 10.4355 20.6552C9.82141 20.5056 9.34177 20.0236 9.19263 19.4061C9.04349 18.7887 9.24983 18.1392 9.72751 17.7231L10.4912 16.897C10.9411 16.4411 10.9382 15.7049 10.4847 15.2525C10.0313 14.8001 9.29902 14.8031 8.84905 15.259L8.08636 16.1183C6.61309 17.7021 6.65409 20.1751 8.17909 21.7087C9.70408 23.2422 12.1638 23.284 13.7395 21.8029L17.1499 18.3732C18.7096 16.803 18.7096 14.2596 17.1499 12.6895C16.9408 12.4616 16.6497 12.3272 16.3415 12.3162C16.0331 12.3052 15.7332 12.4186 15.5085 12.6312Z" fill="#55942D"/>
        <path d="M21.842 7.98264C20.2602 6.46412 17.7706 6.46412 16.1888 7.98264L12.8005 11.3651C11.241 12.9352 11.241 15.4787 12.8005 17.0488C13.0918 17.3438 13.5173 17.46 13.9169 17.354C14.3165 17.2478 14.6297 16.9356 14.738 16.5346C14.8463 16.1336 14.7339 15.7048 14.4427 15.41C13.7871 14.7478 13.7871 13.6775 14.4427 13.0153L17.854 9.58673C18.5201 8.9469 19.5687 8.9469 20.2348 9.58673C20.8903 10.2489 20.8903 11.3192 20.2348 11.9814L19.4151 12.8053C19.1217 13.098 19.0059 13.5256 19.1114 13.9274C19.2168 14.3291 19.5273 14.6438 19.926 14.7529C20.3246 14.862 20.7509 14.749 21.0443 14.4563L21.865 13.6324C23.3957 12.0597 23.3855 9.54238 21.842 7.98264Z" fill="#55942D"/>
    </g>
    <defs>
        <clipPath id="clip0_12074_23211">
            <rect width="16" height="16" fill="white" transform="translate(7 6.84277)"/>
        </clipPath>
    </defs>
</svg>
