<svg width="39" height="26" viewBox="0 0 39 26" fill="none" xmlns="http://www.w3.org/2000/svg">
<g clip-path="url(#clip0_12067_17121)">
<path fill-rule="evenodd" clip-rule="evenodd" d="M6.20703 13.0023C6.20703 5.8113 12.0366 0 19.207 0C26.3769 0 32.2119 5.81087 32.207 13.0029C32.2067 20.1936 26.3772 26.0046 19.207 26.0046C12.0366 26.0046 6.20703 20.1933 6.20703 13.0023ZM19.207 1.84299C13.0221 1.84299 8.02904 6.85002 8.02904 13.0023C8.02904 19.1545 13.0221 24.1616 19.207 24.1616C25.3919 24.1616 30.385 19.1545 30.385 13.0023C30.3892 6.85109 25.3925 1.84299 19.207 1.84299Z" fill="white"/>
<path d="M19.2066 6.60059C20.6842 9.30275 22.9063 11.5248 25.6084 13.0025C22.9063 14.4801 20.6842 16.7022 19.2066 19.4043C17.7289 16.7022 15.5069 14.4801 12.8047 13.0025C15.5069 11.5248 17.7289 9.30275 19.2066 6.60059Z" fill="white"/>
</g>
<defs>
<clipPath id="clip0_12067_17121">
<rect width="38.4112" height="26.0046" fill="white"/>
</clipPath>
</defs>
</svg>
