<svg width="30" height="24" viewBox="0 0 30 24" fill="none" xmlns="http://www.w3.org/2000/svg">
<path d="M16.099 23.4013C15.7046 23.7843 15.1683 24 14.6089 24C14.0496 24 13.5132 23.7847 13.1188 23.4013L0.617343 11.3258C0.221274 10.9444 -0.000820296 10.4264 2.2768e-06 9.88651C2.2768e-06 9.3645 0.205234 8.84367 0.617343 8.44561L8.74025 0.599484C9.13468 0.215719 9.67141 0 10.2312 0C10.7909 0 11.3277 0.215719 11.7221 0.599484L14.6073 3.38953L17.4957 0.599484C17.9091 0.203006 18.447 0.00317818 18.9875 0.00317818C19.5267 0.00317818 20.0654 0.203006 20.4776 0.599484L28.6005 8.4472C29.0126 8.84645 29.2174 9.36569 29.2174 9.8881C29.2174 10.4089 29.0122 10.9294 28.6005 11.3274L16.099 23.4013ZM19.4835 17.5209L20.7605 16.2886L18.0131 13.6348L19.3638 12.3301L22.1112 14.9839L23.0103 14.1155L19.108 10.3462L18.8476 10.5976C18.0723 11.3477 17.0195 11.768 15.9226 11.7664C14.8252 11.768 13.7728 11.3477 12.9971 10.5976L11.5621 9.21155C11.1664 8.83017 10.9443 8.31212 10.9452 7.77223C10.9452 7.25141 11.152 6.72939 11.5621 6.33291L13.2558 4.69536L10.2295 1.77223L1.83023 9.88492L14.6089 22.2313L15.6458 21.2298L12.8984 18.5745L14.2507 17.2698L16.9981 19.9236L18.1345 18.8259L15.3871 16.1722L16.7377 14.8659L19.4851 17.5213H19.4835V17.5209Z" fill="#55942D"/>
</svg>
