<svg xmlns="http://www.w3.org/2000/svg" width="17" height="23" viewBox="0 0 17 23" fill="none">
    <rect x="1.04348" y="1.04348" width="14.6087" height="20.8696" rx="4.17391" stroke="#55942D" stroke-width="2.08696"/>
    <path d="M5.73828 2.08742C5.73828 1.51113 6.20546 1.04395 6.78176 1.04395H9.91219C10.4885 1.04395 10.9557 1.51113 10.9557 2.08742C10.9557 2.66372 10.4885 3.1309 9.91219 3.1309H6.78176C6.20546 3.1309 5.73828 2.66372 5.73828 2.08742Z" fill="#55942D"/>
    <path d="M5.73828 20.8697C5.73828 20.2934 6.20546 19.8262 6.78176 19.8262H9.91219C10.4885 19.8262 10.9557 20.2934 10.9557 20.8697C10.9557 21.4459 10.4885 21.9131 9.91219 21.9131H6.78176C6.20546 21.9131 5.73828 21.4459 5.73828 20.8697Z" fill="#55942D"/>
</svg>
