<svg width="36" height="36" viewBox="0 0 36 36" fill="none" xmlns="http://www.w3.org/2000/svg">
<path
        d="M27.7276 16.4552C27.9414 16.4552 28.1467 16.5401 28.3006 16.6844C28.4546 16.8287 28.5401 17.024 28.5401 17.2278V19.5457H34.2025C34.6473 19.5457 35.0066 19.8938 35.0066 20.3184V29.5816C34.998 30.0146 34.6388 30.3627 34.2025 30.3542H28.5401V34.2174C28.5401 34.4297 28.4461 34.625 28.3006 34.7693C28.1467 34.9136 27.95 34.9901 27.7361 34.9901H26.1195C25.9057 34.9901 25.7004 34.9136 25.5464 34.7608C25.3925 34.6165 25.3069 34.4212 25.3069 34.2174V30.3542H19.6445C19.4307 30.3542 19.2254 30.2778 19.0715 30.125C18.9175 29.9806 18.832 29.7853 18.832 29.5816V20.3184C18.832 20.1146 18.9175 19.9193 19.0715 19.775C19.2254 19.6306 19.4307 19.5457 19.6445 19.5457H25.3069V17.2278C25.3069 17.024 25.3925 16.8287 25.5464 16.6844C25.7004 16.5401 25.9057 16.4552 26.1195 16.4552H27.7276ZM25.2984 22.6363H22.0652V27.2721H25.2984V22.6363ZM31.7648 22.6363H28.5316V27.2721H31.7648V22.6363ZM10.2015 1.01931C10.5351 1.01931 10.8259 1.2061 10.9542 1.50327H10.9457L17.4121 16.9391C17.5147 17.1769 17.4805 17.4486 17.3351 17.6608C17.1812 17.8731 16.9331 18.0004 16.6679 18.0004H14.923C14.598 18.0004 14.2986 17.8136 14.1703 17.5165L12.434 13.3731H5.82216L4.08581 17.5165C3.95751 17.8136 3.65813 18.0089 3.3331 18.0004H1.59675C1.33159 18.0004 1.08354 17.8731 0.929582 17.6608C0.775619 17.4486 0.749959 17.1769 0.852601 16.9391L7.31046 1.50327C7.43876 1.2061 7.73813 1.01082 8.06316 1.01931H10.2015ZM9.12379 5.46837L7.11373 10.274H11.1424L9.12379 5.46837Z" fill="#a3a3a3"/>
<path d="M34.9726 18C34.4338 18 33.9719 17.5925 33.9462 17.066C33.4587 8.70283 26.4449 2.03774 17.8914 2.03774C16.9847 2.03774 16.1037 2.11415 15.2398 2.25849C14.7181 2.3434 14.222 1.99528 14.1022 1.48585V1.47736C13.9654 0.9 14.3588 0.339623 14.9576 0.246226C15.907 0.0849057 16.8906 0 17.8914 0C27.5397 0 35.4516 7.51415 35.9991 16.9557C36.0333 17.5245 35.5543 18 34.9726 18ZM23.0491 33.9453C23.3827 34.5311 23.0662 35.2698 22.4076 35.4396C20.9621 35.8047 19.4567 36 17.8999 36C8.93592 36 1.4602 29.5047 0.0146678 21.0057C-0.0794202 20.4453 0.288378 19.9019 0.852907 19.8085C1.40888 19.7151 1.9392 20.0802 2.03328 20.6321C3.2992 28.1802 9.92812 33.9623 17.8914 33.9623C19.2685 33.9623 20.6028 33.7924 21.8773 33.4698C22.3392 33.3509 22.8096 33.5377 23.0491 33.9453Z" fill="#a3a3a3"/>
</svg>
