<svg width="38" height="13" viewBox="0 0 38 13" fill="none" xmlns="http://www.w3.org/2000/svg">
<g clip-path="url(#clip0_12067_17115)">
<path d="M10 7.74419C10 6.09767 10.0828 4.81395 10.2483 3.89302C10.4414 2.94419 10.7862 2.1907 11.2828 1.63256C11.8069 1.04651 12.5931 0.627907 13.6414 0.376744C14.6897 0.125581 16.0966 0 17.8621 0V2.88837C16.5931 2.88837 15.7655 3.08372 15.3793 3.47442C15.1862 3.66977 15.0483 3.94884 14.9655 4.31163C14.9103 4.64651 14.8828 5.09302 14.8828 5.65116V6.19535H17.8621V12.6H10V7.74419ZM20.1379 7.74419C20.1379 6.09767 20.2207 4.81395 20.3862 3.89302C20.5793 2.94419 20.9241 2.1907 21.4207 1.63256C21.9448 1.04651 22.731 0.627907 23.7793 0.376744C24.8276 0.125581 26.2345 0 28 0V2.88837C26.731 2.88837 25.9035 3.08372 25.5172 3.47442C25.3241 3.66977 25.1862 3.94884 25.1034 4.31163C25.0483 4.64651 25.0207 5.09302 25.0207 5.65116V6.19535H28V12.6H20.1379V7.74419Z" fill="white"/>
</g>
<defs>
<clipPath id="clip0_12067_17115">
<rect width="38" height="12.6" fill="white"/>
</clipPath>
</defs>
</svg>
